<svg width="20" height="17" viewBox="0 0 20 17" fill="none" xmlns="http://www.w3.org/2000/svg">
<path d="M11.3306 15.7008C11.3456 15.7158 11.8036 15.8306 12.3485 15.9558C12.8934 16.081 13.3451 16.1644 13.3524 16.1411C13.3596 16.1178 13.416 15.7396 13.4776 15.3006C13.6015 14.4191 13.9013 13.3899 14.2217 12.7463C15.2204 10.7403 17.0123 9.41199 19.1856 9.06675L19.739 8.97882V7.20643L19.2374 7.12227C15.9511 6.57093 13.8086 4.11373 13.4078 0.436516C13.3817 0.196397 13.3504 0 13.3383 0C13.2275 0 11.391 0.442591 11.3563 0.477652C11.3312 0.503004 11.3498 0.728107 11.3979 0.977795C11.9293 3.74265 13.4509 5.99249 15.4255 6.9332L15.8992 7.15886L0 7.18775V8.98121L15.892 9.01018L15.2941 9.31316C13.7427 10.0991 12.5145 11.6408 11.7913 13.7102C11.5852 14.2997 11.2742 15.6438 11.3306 15.7008Z" fill="#788A8A"/>
</svg>
