<svg width="223" height="288" viewBox="0 0 223 288" fill="none" xmlns="http://www.w3.org/2000/svg">
<path d="M114.679 4L114.679 0.499995L107.679 0.499995L107.679 4L114.679 4ZM107.679 284.334C107.679 286.267 109.246 287.834 111.179 287.834C113.112 287.834 114.679 286.267 114.679 284.334L107.679 284.334ZM219 180.013L222.5 180.013L222.5 173.013L219 173.013L219 180.013ZM109.19 281.574C108.265 283.271 108.89 285.397 110.587 286.323C112.284 287.249 114.41 286.623 115.336 284.926L109.19 281.574ZM4.4421 173.012L0.942101 173.012L0.9421 180.012L4.4421 180.012L4.4421 173.012ZM107.679 4L107.679 283.25L114.679 283.25L114.679 4L107.679 4ZM107.679 283.25L107.679 284.334L114.679 284.334L114.679 283.25L107.679 283.25ZM219 173.013C205.654 173.013 192.13 180.302 179.642 190.478C167.069 200.723 155.056 214.297 144.667 227.742C134.263 241.207 125.401 254.654 119.144 264.726C116.014 269.765 113.531 273.967 111.829 276.913C110.977 278.386 110.321 279.546 109.876 280.34C109.653 280.737 109.483 281.043 109.368 281.251C109.311 281.355 109.267 281.434 109.237 281.489C109.222 281.516 109.211 281.536 109.203 281.551C109.199 281.558 109.196 281.564 109.194 281.567C109.193 281.569 109.192 281.571 109.191 281.572C109.191 281.574 109.19 281.574 112.263 283.25C115.336 284.926 115.335 284.926 115.336 284.926C115.336 284.926 115.336 284.925 115.337 284.924C115.338 284.921 115.341 284.917 115.344 284.911C115.35 284.9 115.36 284.882 115.373 284.857C115.4 284.809 115.44 284.735 115.495 284.637C115.603 284.441 115.766 284.148 115.982 283.763C116.413 282.994 117.054 281.861 117.89 280.415C119.56 277.524 122.005 273.387 125.091 268.42C131.266 258.478 139.991 245.241 150.206 232.022C160.437 218.782 172.076 205.672 184.064 195.904C196.138 186.066 208.086 180.013 219 180.013L219 173.013ZM111.179 283.25C114.424 281.938 114.424 281.937 114.423 281.935C114.423 281.934 114.422 281.932 114.421 281.93C114.419 281.926 114.417 281.92 114.414 281.912C114.408 281.897 114.399 281.876 114.387 281.848C114.365 281.792 114.331 281.711 114.288 281.605C114.2 281.394 114.072 281.085 113.902 280.685C113.562 279.884 113.059 278.717 112.398 277.236C111.075 274.275 109.119 270.056 106.573 264.998C101.485 254.891 94.0214 241.392 84.5285 227.87C75.0484 214.366 63.4602 200.718 50.0908 190.417C36.7164 180.113 21.3608 173.012 4.4421 173.012L4.4421 180.012C19.3278 180.012 33.2165 186.254 45.8187 195.963C58.4258 205.676 69.5463 218.712 78.7994 231.892C88.0397 245.054 95.3335 258.239 100.32 268.146C102.811 273.094 104.722 277.214 106.006 280.09C106.648 281.528 107.134 282.654 107.457 283.417C107.619 283.798 107.74 284.088 107.819 284.281C107.859 284.378 107.889 284.45 107.908 284.497C107.918 284.52 107.925 284.537 107.929 284.548C107.931 284.553 107.933 284.557 107.933 284.559C107.934 284.56 107.934 284.561 107.934 284.561C107.934 284.561 107.934 284.561 111.179 283.25Z" fill="white"/>
</svg>
