<svg width="87" height="84" viewBox="0 0 87 84" fill="none" xmlns="http://www.w3.org/2000/svg">
<path d="M40.4519 66.2029C42.7514 66.1542 45.0566 65.9836 47.3464 65.8142C48.2007 65.751 49.0528 65.688 49.9017 65.6315C52.2786 65.4768 54.6655 65.665 56.9871 66.1902C57.4982 66.3117 58.0168 66.4001 58.5395 66.4548C58.8318 66.5092 59.1349 66.4536 59.389 66.2974C59.6412 66.1423 59.8267 65.8991 59.9083 65.6148C60.0159 65.3351 60.0192 65.0256 59.916 64.7428C59.8112 64.4559 59.6051 64.2184 59.3381 64.0726C59.099 63.923 58.8399 63.8077 58.5686 63.7297L58.5659 63.7289C56.1791 63.0578 53.7006 62.7597 51.2204 62.8453L51.2169 62.8455C49.8634 62.9018 48.4896 63.0128 47.1254 63.1231C46.1897 63.1987 45.2586 63.2739 44.3416 63.3309L44.3416 63.3308L44.3299 63.3318C40.7998 63.6347 37.2443 63.4704 33.7584 62.8434L33.7584 62.8433L33.7509 62.8421C31.89 62.5366 30.098 61.9121 28.456 60.997L28.4353 60.9855L28.4136 60.976C28.0801 60.8295 27.7844 60.6117 27.548 60.3391C27.3139 60.0691 27.1437 59.7518 27.0489 59.4101C26.959 59.0131 26.949 58.6027 27.0195 58.202C27.0903 57.7999 27.241 57.415 27.463 57.0695C27.9292 56.384 28.5854 55.8435 29.3548 55.513L29.3548 55.513L29.3604 55.5105C30.7258 54.9042 32.2078 54.5945 33.7057 54.6027H33.7085H33.7266H33.7448H33.7629H33.781H33.7992H33.8173H33.8354H33.8536H33.8717H33.8899H33.908H33.9261H33.9443H33.9624H33.9805H33.9987H34.0168H34.035H34.0531H34.0712H34.0894H34.1075H34.1257H34.1438H34.1619H34.1801H34.1982H34.2164H34.2345H34.2526H34.2708H34.2889H34.3071H34.3252H34.3434H34.3615H34.3796H34.3978H34.4159H34.4341H34.4522H34.4704H34.4885H34.5067H34.5248H34.5429H34.5611H34.5792H34.5974H34.6155H34.6337H34.6518H34.67H34.6881H34.7063H34.7244H34.7425H34.7607H34.7788H34.797H34.8151H34.8333H34.8514H34.8696H34.8877H34.9059H34.924H34.9422H34.9603H34.9785H34.9966H35.0148H35.0329H35.0511H35.0692H35.0874H35.1055H35.1237H35.1418H35.16H35.1781H35.1963H35.2144H35.2326H35.2507H35.2689H35.287H35.3052H35.3233H35.3415H35.3597H35.3778H35.396H35.4141H35.4323H35.4504H35.4686H35.4867H35.5049H35.523H35.5412H35.5594H35.5775H35.5957H35.6138H35.632H35.6501H35.6683H35.6864H35.7046H35.7228H35.7409H35.7591H35.7772H35.7954H35.8135H35.8317H35.8499H35.868H35.8862H35.9043H35.9225H35.9407H35.9588H35.977H35.9951H36.0133H36.0315H36.0496H36.0678H36.0859H36.1041H36.1223H36.1404H36.1586H36.1767H36.1949H36.2131H36.2312H36.2494H36.2675H36.2857H36.3039H36.322H36.3402H36.3584H36.3765H36.3947H36.4128H36.431H36.4492H36.4673H36.4855H36.5037H36.5218H36.54H36.5582H36.5763H36.5945H36.6126H36.6308H36.649H36.6671H36.6853H36.7035H36.7216H36.7398H36.758H36.7761H36.7943H36.8125H36.8306H36.8488H36.867H36.8851H36.9033H36.9215H36.9396H36.9578H36.976H36.9941H37.0123H37.0305H37.0486H37.0668H37.085H37.1032H37.1213H37.1395H37.1577H37.1758H37.194H37.2122H37.2303H37.2485H37.2667H37.2848H37.303H37.3212H37.3394H37.3575H37.3757H37.3939H37.412H37.4302H37.4484H37.4666H37.4847H37.5029H37.5211H37.5392H37.5574H37.5756H37.5938H37.6119H37.6301H37.6483H37.6665H37.6846H37.7028H37.721H37.7391H37.7573H37.7755H37.7937H37.8118H37.83H37.8482H37.8664H37.8845H37.9027H37.9209H37.9391H37.9572H37.9754H37.9936H38.0118H38.0299H38.0481H38.0663H38.0845H38.1026H38.1208H38.139H38.1572H38.1753H38.1935H38.2117H38.2299H38.248H38.2662H38.2844H38.3026H38.3208H38.3389H38.3571H38.3753H38.3935H38.4116H38.4298H38.448H38.4662H38.4844H38.5025H38.5207H38.5389H38.5571H38.5752H38.5934H38.6116H38.6298H38.648H38.6661H38.6843H38.7025H38.7207H38.7389H38.757H38.7752H38.7934H38.8116H38.8298H38.8479H38.8661H38.8843H38.9025H38.9207H38.9388H38.957H38.9752H38.9934H39.0116H39.0297H39.0479H39.0661H39.0843H39.1025H39.1207H39.1388H39.157H39.1752H39.1934H39.2116H39.2297H39.2479H39.2661H39.2843H39.3025H39.3207H39.3388H39.357H39.3752H39.3934H39.4116H39.4298H39.4479H39.4661H39.4843H39.5025H39.5207H39.5389H39.557H39.5752H39.5934H39.6116H39.6298H39.648H39.6661H39.6843H39.7025H39.7207H39.7389H39.7571H39.7752H39.7934H39.8116H39.8298H39.848H39.8662H39.8844H39.9025H39.9207H39.9389H39.9571H39.9753H39.9935H40.0117H40.0298H40.048H40.0662H40.0844H40.1026H40.1208H40.139H40.1571H40.1753H40.1935H40.2117H40.2299H40.2481H40.2663H40.2844H40.3026H40.3208H40.339H40.3572H40.3754H40.3936H40.4118H40.4299H40.4481H40.4663H40.4845H40.5027H40.5209H40.5391H40.5573H40.5754H40.5936H40.6118H40.63H40.6482H40.6664H40.6846H40.7028H40.7209H40.7391H40.7573H40.7755H40.7937H40.8119H40.8301H40.8483H40.8665H40.8846H40.9028H40.921H40.9392H40.9574H40.9756H40.9938H41.012H41.0302H41.0483H41.0665H41.0847H41.1029H41.1211H41.1393H41.1575H41.1757H41.1939H41.212H41.2302H41.2484H41.2666H41.2848H41.303H41.3212H41.3394H41.3576H41.3758H41.3939H41.4121H41.4303H41.4485H41.4667H41.4849H41.5031H41.5213H41.5395H41.5577H41.5758H41.594H41.6122H41.6304H41.6486H41.6668H41.685H41.7032H41.7214H41.7396H41.7577H41.7759H41.7941H41.8123H41.8305H41.8487H41.8669H41.8851H41.9033H41.9215H41.9397H41.9578H41.976H41.9942H42.0124H42.0306H42.0488H42.067H42.0852H42.1034H42.1216H42.1398H42.158H42.1761H42.1943H42.2125H42.2307H42.2489H42.2671H42.2853H42.3035H42.3217H42.3399H42.3581H42.3762H42.3944H42.4126H42.4308H42.449H42.4672H42.4854H42.5036H42.5218H42.54H42.5582H42.5764H42.5945H42.6127H42.6309H42.6491H42.6673H42.6855H42.7037H42.7219H42.7401H42.7583H42.7765H42.7947H42.8128H42.831H42.8492H42.8674H42.8856H42.9038H42.922H42.9402H42.9584H42.9766H42.9948H43.006C44.4693 54.6433 45.9337 54.582 47.3882 54.419L47.4018 54.4175L47.4153 54.4152C49.6922 54.033 51.9476 53.5748 54.1899 53.0791L54.1899 53.0793L54.2014 53.0764C57.5693 52.248 61.0382 51.8879 64.5073 52.0066L64.5155 52.0069L64.5238 52.0069C66.2877 52.0091 68.0176 52.4819 69.5302 53.3745C70.4257 53.9856 71.2626 54.676 72.0305 55.4373L72.0352 55.4418C75.46 58.7494 78.8655 62.0761 82.2518 65.4217L82.2521 65.4221C83.2288 66.3852 84.1676 67.3711 85.1119 68.3629C85.5322 68.8043 85.9536 69.2469 86.38 69.6891C86.154 69.9285 85.9326 70.1658 85.7123 70.4019C85.1253 71.0312 84.5464 71.6518 83.9105 72.2788C80.2991 75.8339 76.6812 79.3763 73.0569 82.906C72.7948 83.1597 72.6182 83.3183 72.481 83.4139C72.4154 83.4595 72.3718 83.4813 72.3447 83.4916C72.3214 83.5005 72.3126 83.5 72.3116 83.5H72.3116C72.3102 83.5 72.2618 83.5 72.1175 83.3988C71.9727 83.2973 71.7928 83.1391 71.5266 82.8984C71.1776 82.5672 70.8285 82.2365 70.4795 81.9058C68.5432 80.0712 66.6117 78.2412 64.7213 76.377L64.7174 76.3732C62.594 74.3245 59.811 73.075 56.8525 72.8402C54.279 72.6145 51.6902 72.6144 49.1167 72.8399C48.6592 72.8704 48.2021 72.9012 47.7453 72.9319C44.6377 73.1412 41.546 73.3493 38.4542 73.4567L38.4436 73.4573C35.895 73.6002 33.3427 73.2548 30.9277 72.4401C29.3142 71.8198 27.8075 70.9581 26.4605 69.8855L26.4606 69.8855L26.4541 69.8805C22.4037 66.7619 18.555 63.3968 14.9306 59.8046L14.9307 59.8045L14.923 59.7972C10.9737 56.0448 7.23023 52.0874 3.70834 47.9418C2.9598 47.0547 2.26644 46.1345 1.5634 45.2015C1.25564 44.7931 0.946025 44.3822 0.629115 43.9705C0.649283 43.9478 0.669087 43.9254 0.688658 43.9032C0.821073 43.7533 0.94278 43.6156 1.09353 43.4669L1.10518 43.4554L1.11606 43.4432C1.56932 42.9336 2.15393 42.5532 2.80916 42.3428C3.46373 42.1325 4.16389 42.0999 4.8358 42.2484C5.59929 42.4246 6.32216 42.7407 6.96656 43.18C8.2114 44.0518 9.39537 44.9362 10.5833 45.8235C11.2965 46.3562 12.0112 46.89 12.7413 47.4228L12.7417 47.4232C16.5988 50.2315 20.4559 53.0336 24.313 55.8293L24.3217 55.8355L24.3306 55.8415C24.5364 55.9776 24.6527 56.0571 24.7262 56.1204C24.7357 56.1286 24.7434 56.1356 24.7495 56.1415C24.7469 56.1583 24.7421 56.1829 24.7333 56.2174C24.7079 56.3175 24.6661 56.4418 24.603 56.6298C24.5918 56.6631 24.58 56.6983 24.5674 56.7358C24.1562 57.9039 24.0275 59.0403 24.3048 60.0954C24.5847 61.1602 25.2629 62.0834 26.3555 62.8428L26.3573 62.8441C27.5046 63.6337 28.7623 64.2539 30.0908 64.6853C33.4266 65.7908 36.9345 66.3046 40.4519 66.2029ZM40.4519 66.2029C40.4523 66.2029 40.4527 66.2029 40.4531 66.2029L40.4386 65.7031L40.4492 66.203C40.4501 66.203 40.451 66.2029 40.4519 66.2029ZM52.4986 0.556384L52.5186 0.556857L52.5387 0.555725C54.2503 0.458902 55.9584 0.792786 57.5026 1.52565L57.512 1.5301L57.5216 1.53416C59.6668 2.44513 61.5162 3.91915 62.8686 5.79458C64.2209 7.66995 65.0243 9.87493 65.1923 12.1688L65.1928 12.1744C65.3948 14.5633 65.1208 16.968 64.3859 19.2532L64.3845 19.2575C62.9477 23.8692 60.5033 28.115 57.2231 31.6958L57.2179 31.7015L57.2129 31.7073C54.357 35.024 51.1869 38.0648 47.7458 40.7884C45.4379 42.6057 43.0682 44.3547 40.6916 46.1088C40.4155 46.3125 40.1394 46.5163 39.8633 46.7203C39.6111 46.9038 39.4486 47.017 39.3223 47.0863C39.2027 47.1519 39.1616 47.1515 39.152 47.1514C39.1379 47.1511 39.0897 47.1471 38.9565 47.0747C38.82 47.0005 38.6505 46.887 38.3894 46.7121L38.3851 46.7092C38.3849 46.7091 38.3847 46.7089 38.3845 46.7088C34.7277 44.2387 31.2472 41.5238 27.9677 38.5835L27.9678 38.5834L27.959 38.5758C24.7923 35.8665 21.9084 32.8518 19.3501 29.5768L19.3485 29.5748C17.0408 26.6525 15.2584 23.362 14.0788 19.8463L14.0788 19.8462L14.076 19.8381C13.0028 16.8132 12.7663 13.5613 13.3907 10.4166C13.9889 7.58967 15.5755 5.05828 17.8751 3.26538L17.8752 3.26542L17.8811 3.26066C20.114 1.46458 22.9144 0.494081 25.7978 0.518492L25.8126 0.518617L25.8273 0.517872C27.2331 0.446776 28.6415 0.588075 30.0038 0.936867C33.2468 1.95743 36.0556 4.00566 37.9946 6.76172C37.9947 6.76196 37.9949 6.76219 37.9951 6.76243L38.4859 7.4648L38.486 7.46492C38.5473 7.55258 38.6245 7.64812 38.7214 7.72594C38.8209 7.80593 38.9668 7.88709 39.1535 7.89213C39.5266 7.90221 39.7528 7.614 39.8576 7.46148L39.8585 7.46014C40.201 6.95802 40.5737 6.49791 40.9676 6.02425L40.9693 6.02216C43.8671 2.49857 47.4402 0.436958 52.4986 0.556384ZM58.4306 64.2102L58.4306 64.2101L58.4306 64.2102Z" stroke="#E9BF97"/>
</svg>
